<svg width="113" height="64" viewBox="0 0 113 64" fill="none" xmlns="http://www.w3.org/2000/svg">
<path d="M0.000244141 1H112.152" stroke="black"/>
<path d="M26.2391 16.906C27.6167 19.5867 28.9785 22.2373 30.36 24.9258C30.2237 24.933 30.1214 24.9428 30.0197 24.9428C28.8462 24.9441 27.6727 24.9343 26.4992 24.9507C26.2417 24.9546 26.1198 24.8708 26.0103 24.6429C24.9118 22.3564 23.7989 20.0771 22.7011 17.79C22.5909 17.5602 22.467 17.4737 22.2095 17.4803C21.4735 17.4999 20.7368 17.4868 19.9623 17.4868V24.9225H16.3662V6.35031H16.6681C19.0698 6.35031 21.4715 6.31102 23.8719 6.36209C26.0703 6.40858 27.8566 7.28861 28.9512 9.28962C29.9512 11.1178 29.9069 13.8868 28.2738 15.5762C27.704 16.1655 27.0319 16.5917 26.2398 16.9054L26.2391 16.906ZM19.9753 14.4526C21.2336 14.4526 22.4703 14.4814 23.705 14.4408C24.3844 14.4185 25.0004 14.1422 25.4398 13.5909C26.0487 12.8274 26.1563 11.9637 25.7991 11.068C25.4359 10.1585 24.6992 9.68118 23.7572 9.63076C22.5342 9.56594 21.3059 9.59737 20.0803 9.58886C20.0509 9.58886 20.0216 9.60915 19.976 9.62552V14.4519L19.9753 14.4526Z" fill="black"/>
<path d="M50.1404 6.36081C52.591 6.36081 55.0129 6.33658 57.4342 6.37718C58.0744 6.38766 58.7342 6.52778 59.347 6.72618C61.664 7.47721 63.0259 9.12006 63.3897 11.508C63.5768 12.7384 63.5409 14.0047 63.5683 15.256C63.5911 16.3017 63.5774 17.3494 63.5461 18.395C63.5122 19.5376 63.3192 20.6553 62.7886 21.6814C61.7768 23.6385 60.1019 24.6128 57.976 24.8715C57.4284 24.9383 56.871 24.9383 56.3181 24.9402C54.3845 24.9481 52.4508 24.9435 50.5179 24.9435H50.141V6.36081H50.1404ZM53.7384 21.6847C53.8238 21.6964 53.876 21.7095 53.9281 21.7095C54.9165 21.701 55.9054 21.7174 56.8918 21.6748C58.4284 21.6087 59.5432 20.6265 59.7597 19.1009C60.0765 16.8661 60.0504 14.6169 59.806 12.3789C59.6358 10.8225 58.7153 9.83901 57.2126 9.66549C56.0867 9.53585 54.9373 9.61442 53.7984 9.60263C53.7821 9.60263 53.7658 9.62882 53.7384 9.6524V21.6847Z" fill="black"/>
<path d="M32.6973 15.3817C32.7553 14.3275 32.769 13.0271 32.9091 11.7405C33.2684 8.43647 36.0547 6.58475 38.4539 6.28813C39.9937 6.09759 41.4925 6.23117 42.8851 6.97893C44.983 8.1058 46.2021 9.86913 46.3084 12.2545C46.4094 14.5161 46.4277 16.7908 46.3064 19.0505C46.1323 22.2805 43.7489 24.6652 40.5205 25.0221C38.1996 25.2788 36.1577 24.6875 34.4901 22.9772C33.4431 21.9027 32.9633 20.5814 32.8498 19.1218C32.7592 17.9603 32.7514 16.7921 32.6973 15.3817ZM36.3064 15.4728C36.3722 16.7371 36.412 17.8378 36.4935 18.9346C36.5424 19.5933 36.7132 20.2271 37.1624 20.7437C38.0594 21.775 39.2094 22.0343 40.4735 21.7069C41.7207 21.3841 42.4619 20.51 42.6112 19.2279C42.7358 18.1593 42.8036 17.077 42.799 16.0012C42.7931 14.6851 42.754 13.3611 42.6054 12.0548C42.4248 10.4702 41.1972 9.47168 39.596 9.45727C38.0014 9.44221 36.766 10.4316 36.5561 12.0162C36.3976 13.2118 36.3768 14.4258 36.3057 15.4728H36.3064Z" fill="black"/>
<path d="M66.9923 6.36932H70.5831C70.5831 6.50421 70.5831 6.63124 70.5831 6.75826C70.5831 10.5783 70.5779 14.3989 70.5903 18.2189C70.5916 18.6831 70.6359 19.1611 70.7507 19.6097C71.1053 20.9971 72.1315 21.7436 73.7215 21.8313C75.2432 21.9151 76.4903 21.0515 76.8782 19.592C76.9969 19.1454 77.036 18.6661 77.0379 18.2019C77.0503 14.3924 77.0451 10.5828 77.0451 6.77398C77.0451 6.64564 77.0451 6.51665 77.0451 6.36932H80.6242V6.74582C80.6242 10.6968 80.6242 14.6484 80.6242 18.5993C80.6242 21.686 78.6691 24.1794 75.6676 24.861C73.582 25.3344 71.5741 25.1164 69.7565 23.9175C67.9337 22.7153 67.0066 20.9631 66.9857 18.7899C66.9479 14.7518 66.9747 10.7125 66.976 6.67445C66.976 6.5782 66.9864 6.4826 66.9929 6.36932H66.9923Z" fill="black"/>
<path d="M3.59803 24.9245H0V6.35031H0.30315C2.68206 6.35031 5.06162 6.34507 7.44053 6.35162C10.3384 6.36013 12.6195 8.21251 13.1776 10.9973C13.8588 14.3976 11.5686 17.5576 8.13159 17.8601C6.77295 17.9799 5.39802 17.9157 4.03026 17.9347C3.90053 17.9367 3.77144 17.9347 3.59868 17.9347V24.9232L3.59803 24.9245ZM3.61042 14.6673C4.72653 14.6673 5.82113 14.668 6.91573 14.666C7.06698 14.666 7.2254 14.6765 7.36882 14.6392C7.73325 14.5442 8.1192 14.4768 8.44712 14.3046C9.39569 13.807 9.84422 12.6873 9.59844 11.5584C9.35657 10.446 8.50514 9.67267 7.35774 9.62487C6.14449 9.57446 4.92863 9.59672 3.71407 9.58886C3.68474 9.58886 3.6554 9.60916 3.60976 9.62618V14.6673H3.61042Z" fill="black"/>
<path d="M97.6527 12.0954C97.5452 12.0954 97.4395 12.0954 97.3339 12.0954C96.3456 12.0954 95.3566 12.0869 94.3683 12.1013C94.1153 12.1045 93.9993 12.0476 93.9178 11.7804C93.5755 10.6588 92.9145 9.81542 91.7162 9.55613C89.9045 9.16457 88.0184 9.97519 87.8 12.4018C87.6051 14.5685 87.5992 16.7378 87.8039 18.9031C87.9461 20.4065 88.7551 21.4411 90.0199 21.7239C91.7051 22.1004 93.2802 21.5314 93.9217 19.537C93.955 19.4335 93.9849 19.3294 94.0202 19.2135H97.7251C97.5706 19.7589 97.4571 20.286 97.2733 20.7869C96.2947 23.4493 93.9667 25.045 91.1366 25.081C89.0667 25.1072 87.2798 24.4806 85.8123 22.9877C84.7516 21.9086 84.2163 20.5761 84.1694 19.1035C84.097 16.8065 84.056 14.5004 84.1707 12.2067C84.3656 8.32318 87.5236 6.51663 89.9182 6.27306C91.8798 6.074 93.7118 6.39485 95.2901 7.65923C96.6657 8.76123 97.3607 10.2587 97.6651 11.9651C97.6703 11.9952 97.6599 12.0279 97.6534 12.0954H97.6527Z" fill="black"/>
<path d="M112.152 6.37323V9.56529H107.329V24.9252H103.719V9.59672H98.8994V6.37323H112.152Z" fill="black"/>
<path d="M112.152 63.8368H30.415V32.2578H112.152V63.8368ZM92.0695 45.7938C92.0905 45.7894 92.111 45.7857 92.1321 45.7813C92.1817 45.889 92.2337 45.9955 92.2796 46.1044C93.3748 48.7096 94.4719 51.3136 95.5578 53.922C95.652 54.1486 95.7648 54.2326 96.0121 54.222C96.5278 54.2002 97.0453 54.2052 97.561 54.2201C97.7674 54.2264 97.8653 54.1616 97.9471 53.9655C99.0473 51.3292 100.157 48.6966 101.265 46.0633C101.308 45.96 101.358 45.8585 101.404 45.7558C101.43 45.7639 101.456 45.7726 101.481 45.7807V56.7364H104.034V39.0687C103.322 39.0687 102.63 39.0805 101.941 39.0625C101.696 39.0563 101.585 39.1303 101.489 39.3625C99.9919 42.9887 98.4827 46.6099 96.9753 50.2317C96.9306 50.3388 96.8767 50.4415 96.8098 50.584C96.7559 50.4732 96.7218 50.4116 96.6939 50.3462C95.2231 46.8776 93.7529 43.4083 92.2814 39.9396C92.1606 39.6551 92.0974 39.2698 91.8798 39.1241C91.6623 38.9791 91.2836 39.0718 90.9761 39.0693C90.4846 39.065 89.9931 39.0681 89.5084 39.0681V56.7407H92.0695V45.7931V45.7938ZM63.3766 56.7445C63.3369 56.6187 63.3065 56.5104 63.2693 56.4052C62.7946 55.0475 62.3192 53.6898 61.8432 52.3321C60.3308 48.0149 58.816 43.699 57.3123 39.3793C57.2243 39.1272 57.1035 39.0531 56.8493 39.0631C56.3442 39.083 55.8372 39.0812 55.3314 39.0631C55.1071 39.055 55.0178 39.1322 54.944 39.3439C53.1416 44.502 51.3305 49.6571 49.5219 54.8134C49.3 55.4453 49.0831 56.079 48.855 56.7376C48.9722 56.7463 49.0509 56.7569 49.1302 56.7575C49.8529 56.7588 50.5762 56.7476 51.2989 56.7644C51.5208 56.7694 51.6008 56.6859 51.664 56.4905C52.0297 55.3575 52.4165 54.2307 52.7753 53.0953C52.8497 52.8587 52.9606 52.8021 53.1906 52.8033C54.9254 52.812 56.6609 52.8064 58.3958 52.8095C58.7131 52.8102 59.1135 52.7193 59.3255 52.8755C59.5393 53.033 59.5722 53.4445 59.6744 53.7477C60.011 54.7462 60.3438 55.7466 60.6773 56.7445H63.3772H63.3766ZM87.1717 56.7575C87.119 56.5969 87.0837 56.4799 87.0428 56.3641C86.7013 55.3867 86.3592 54.41 86.017 53.4333C84.3665 48.7252 82.714 44.0183 81.0709 39.3078C81.0015 39.1086 80.9061 39.0612 80.717 39.0656C80.2113 39.0756 79.7036 39.0893 79.1991 39.0612C78.9109 39.0451 78.7944 39.1434 78.7001 39.4142C76.7825 44.9173 74.8542 50.416 72.9279 55.9159C72.8336 56.1854 72.7394 56.4556 72.6378 56.7476H75.3494C75.3935 56.6262 75.4393 56.511 75.4778 56.394C75.8434 55.2946 76.2135 54.1965 76.5674 53.0934C76.6349 52.883 76.7236 52.8014 76.9535 52.8027C78.9158 52.812 80.8788 52.812 82.8417 52.8027C83.076 52.8014 83.1795 52.8724 83.2539 53.1027C83.6208 54.2457 84.0057 55.3824 84.3968 56.5166C84.4303 56.6144 84.5586 56.7451 84.6454 56.7469C85.4704 56.7644 86.2959 56.7575 87.1723 56.7575H87.1717ZM69.359 56.7438V41.4287H74.0057V39.0924H62.1035V41.448H66.7731V56.7432H69.3596L69.359 56.7438ZM36.8735 56.7413H47.7288V54.2469H39.4097V39.0924H36.8735V56.7413Z" fill="black"/>
<path d="M56.1575 42.7024C56.9732 45.259 57.7888 47.8157 58.6144 50.4035H53.6355C54.4592 47.8207 55.2755 45.2622 56.0912 42.703H56.1575V42.7024Z" fill="black"/>
<path d="M79.9458 42.7048C80.7614 45.2634 81.5777 47.8225 82.4027 50.411H77.4207C78.245 47.825 79.0607 45.2677 79.8757 42.7098C79.8993 42.7079 79.9222 42.7067 79.9458 42.7048Z" fill="black"/>
</svg>
